<svg xmlns="http://www.w3.org/2000/svg" viewBox="0 0 24 24" fill="#E4405F">
  <path d="M12 2.163c3.204 0 3.584.012 4.85.07 
           1.366.062 2.633.35 3.608 1.325.975.975 
           1.262 2.242 1.324 3.608.058 1.266.069 
           1.646.069 4.85s-.012 3.584-.07 4.85c-.062 
           1.366-.35 2.633-1.324 3.608-.975.975-2.242 
           1.262-3.608 1.324-1.266.058-1.646.069-4.85.069s-3.584-.012-4.85-.07c-1.366-.062-2.633-.35-3.608-1.324-.975-.975-1.262-2.242-1.324-3.608C2.175 
           15.747 2.163 15.367 2.163 12s.012-3.584.07-4.85c.062-1.366.35-2.633 
           1.324-3.608.975-.975 2.242-1.262 3.608-1.324C8.416 
           2.175 8.796 2.163 12 2.163zm0 
           1.684c-3.17 0-3.548.012-4.795.07-1.04.048-1.602.218-1.975.363-.497.193-.85.423-1.223.796-.373.373-.603.726-.796 
           1.223-.145.373-.315.935-.363 
           1.975-.058 1.247-.07 1.625-.07 
           4.795s.012 3.548.07 4.795c.048 
           1.04.218 1.602.363 1.975.193.497.423.85.796 
           1.223.373.373.726.603 1.223.796.373.145.935.315 
           1.975.363 1.247.058 1.625.07 
           4.795.07s3.548-.012 4.795-.07c1.04-.048 
           1.602-.218 1.975-.363.497-.193.85-.423 
           1.223-.796.373-.373.603-.726.796-1.223.145-.373.315-.935.363-1.975.058-1.247.07-1.625.07-4.795s-.012-3.548-.07-4.795c-.048-1.04-.218-1.602-.363-1.975-.193-.497-.423-.85-.796-1.223-.373-.373-.726-.603-1.223-.796-.373-.145-.935-.315-1.975-.363-1.247-.058-1.625-.07-4.795-.07zm0 
           3.905a5.932 5.932 0 1 1 0 11.863 5.932 5.932 0 0 1 0-11.863zm0 
           9.8a3.868 3.868 0 1 0 0-7.737 3.868 3.868 0 0 0 0 7.737zm7.842-10.74a1.387 
           1.387 0 1 1-2.774 0 1.387 1.387 0 0 1 2.774 0z"/>
</svg>
