<svg xmlns="http://www.w3.org/2000/svg" viewBox="0 0 24 24" fill="#0A66C2">
  <path d="M20.447 20.452H17.2v-5.569c0-1.328-.027-3.037-1.852-3.037-1.853 
           0-2.136 1.445-2.136 2.939v5.667h-3.248V9h3.122v1.561h.045c.435-.824 
           1.498-1.69 3.081-1.69 3.296 0 3.905 2.168 3.905 4.984v6.597zM5.337 
           7.433a1.88 1.88 0 1 1 0-3.762 1.88 1.88 0 0 1 0 3.762zM6.967 
           20.452H3.708V9h3.259v11.452zM22.225 0H1.771C.792 0 0 
           .774 0 1.729v20.542C0 23.226.792 24 1.771 
           24h20.451C23.2 24 24 23.226 24 
           22.271V1.729C24 .774 23.2 0 22.225 0z"/>
</svg>
