<svg xmlns="http://www.w3.org/2000/svg" viewBox="0 0 24 24" fill="#1DA1F2">
  <path d="M24 4.557a9.93 9.93 0 0 1-2.828.775 
           4.932 4.932 0 0 0 2.165-2.724 
           9.865 9.865 0 0 1-3.127 1.195 
           4.92 4.92 0 0 0-8.384 4.482 
           13.978 13.978 0 0 1-10.15-5.15 
           4.822 4.822 0 0 0-.666 2.475 
           4.92 4.92 0 0 0 2.188 4.1 
           4.903 4.903 0 0 1-2.229-.616v.06 
           a4.925 4.925 0 0 0 3.946 4.827 
           4.996 4.996 0 0 1-2.224.084 
           4.928 4.928 0 0 0 4.604 3.417 
           A9.867 9.867 0 0 1 0 19.54 
           a13.94 13.94 0 0 0 7.548 2.212 
           c9.056 0 14.01-7.496 14.01-13.986 
           0-.213-.005-.425-.014-.636 
           A9.935 9.935 0 0 0 24 4.557z"/>
</svg>
